<svg xmlns="http://www.w3.org/2000/svg" xmlns:xlink="http://www.w3.org/1999/xlink" viewBox="0 0 150 50">

    <defs>

        <g id="symbol">
            <path d="M9.385,33.812c-1.043,0.012-1.914-0.442-2.437-1.3c-0.535-0.852-0.778-2.058-0.787-3.627l-0.017-3.789
                l-0.02-3.791c-0.007-1.568,0.226-2.777,0.75-3.634c0.515-0.865,1.381-1.326,2.425-1.321l8.178-0.043l-3.463-5.992l-5.561,0.029
                c-2.875,0.019-4.947,0.975-6.348,2.889C0.704,15.146-0.016,18.078,0,22.035l0.016,3.087l0.013,3.083
                c0.002,0.006,0.002,0.006,0,0.009c0.022,3.958,0.772,6.881,2.191,8.781c1.417,1.898,3.503,2.838,6.377,2.83l5.753-0.029
                l3.446-6.024L9.385,33.812z" />
            <path d="M23.717,7.926c0.526-0.942,1.398-1.47,2.453-1.459c0.983-0.006,2.108,0.387,3.419,1.134l3.295,1.88
                l3.295,1.881c1.992,1.14,3.101,2.354,3.12,3.756c0.002,0.497-0.143,0.993-0.414,1.471l-4.107,7.194l6.935-0.035l2.792-4.891
                c0.852-1.487,1.263-2.907,1.258-4.264c-0.01-3.162-2.327-6.144-7.159-8.905l-2.681-1.527l-2.682-1.53
                c-3.016-1.725-5.627-2.565-7.811-2.551c-2.787,0.026-4.92,1.365-6.527,4.164L16.068,9.21l3.479,6.022L23.717,7.926z" />
            <path d="M44.565,30.953l-2.845-4.877l-6.94,0.035l4.188,7.165c0.275,0.482,0.428,0.974,0.432,1.468
                c-0.013,1.399-1.109,2.633-3.091,3.785l-3.273,1.915l-3.27,1.91c-1.31,0.766-2.432,1.169-3.416,1.173
                c-1.054,0.014-1.932-0.502-2.47-1.443l-4.123-7.06l-3.441,6.015l2.792,4.786c1.632,2.78,3.773,4.097,6.562,4.097
                c2.188-0.009,4.791-0.876,7.79-2.626l2.666-1.558l2.667-1.555c4.801-2.811,7.088-5.803,7.068-8.963
                c0.002-0.007,0-0.007,0.002-0.013C45.858,33.851,45.43,32.436,44.565,30.953z" />
        </g>
        <g id="symbol-color">
            <path d="M9.385,33.812c-1.043,0.012-1.914-0.442-2.437-1.3c-0.535-0.852-0.778-2.058-0.787-3.627l-0.017-3.789
                l-0.02-3.791c-0.007-1.568,0.226-2.777,0.75-3.634c0.515-0.865,1.381-1.326,2.425-1.321l8.178-0.043l-3.463-5.992l-5.561,0.029
                c-2.875,0.019-4.947,0.975-6.348,2.889C0.704,15.146-0.016,18.078,0,22.035l0.016,3.087l0.013,3.083
                c0.002,0.006,0.002,0.006,0,0.009c0.022,3.958,0.772,6.881,2.191,8.781c1.417,1.898,3.503,2.838,6.377,2.83l5.753-0.029
                l3.446-6.024L9.385,33.812z" fill="#00AED8" />
            <path d="M23.717,7.926c0.526-0.942,1.398-1.47,2.453-1.459c0.983-0.006,2.108,0.387,3.419,1.134l3.295,1.88
                l3.295,1.881c1.992,1.14,3.101,2.354,3.12,3.756c0.002,0.497-0.143,0.993-0.414,1.471l-4.107,7.194l6.935-0.035l2.792-4.891
                c0.852-1.487,1.263-2.907,1.258-4.264c-0.01-3.162-2.327-6.144-7.159-8.905l-2.681-1.527l-2.682-1.53
                c-3.016-1.725-5.627-2.565-7.811-2.551c-2.787,0.026-4.92,1.365-6.527,4.164L16.068,9.21l3.479,6.022L23.717,7.926z" fill="#4DC5E2" />
            <path d="M44.565,30.953l-2.845-4.877l-6.94,0.035l4.188,7.165c0.275,0.482,0.428,0.974,0.432,1.468
                c-0.013,1.399-1.109,2.633-3.091,3.785l-3.273,1.915l-3.27,1.91c-1.31,0.766-2.432,1.169-3.416,1.173
                c-1.054,0.014-1.932-0.502-2.47-1.443l-4.123-7.06l-3.441,6.015l2.792,4.786c1.632,2.78,3.773,4.097,6.562,4.097
                c2.188-0.009,4.791-0.876,7.79-2.626l2.666-1.558l2.667-1.555c4.801-2.811,7.088-5.803,7.068-8.963
                c0.002-0.007,0-0.007,0.002-0.013C45.858,33.851,45.43,32.436,44.565,30.953z" fill="#8ED5E7" />
        </g>
        <g id="text">
            <path d="M58.661,19.536c-0.664,0-1.277,0.11-1.838,0.329c-0.56,0.219-1.041,0.538-1.443,0.956
                c-0.402,0.418-0.716,0.934-0.941,1.549c-0.226,0.614-0.339,1.316-0.339,2.106c0,0.783,0.103,1.472,0.309,2.067
                c0.205,0.594,0.501,1.09,0.887,1.489c0.385,0.399,0.854,0.698,1.408,0.901c0.555,0.203,1.184,0.304,1.888,0.304
                c0.504,0,1.019-0.04,1.543-0.12c0.525-0.079,1.017-0.195,1.474-0.348v2.101c-0.464,0.133-0.966,0.238-1.504,0.315
                c-0.538,0.075-1.095,0.114-1.673,0.114c-1.129,0-2.121-0.161-2.977-0.484c-0.857-0.321-1.572-0.778-2.147-1.364
                c-0.573-0.588-1.005-1.292-1.294-2.112c-0.289-0.82-0.433-1.725-0.433-2.714c0-1.016,0.154-1.959,0.463-2.829
                c0.309-0.87,0.753-1.623,1.335-2.261c0.581-0.637,1.308-1.138,2.18-1.504c0.874-0.365,1.861-0.551,2.964-0.557
                c0.563,0,1.097,0.038,1.603,0.114c0.505,0.076,0.958,0.184,1.364,0.324v2.072c-0.53-0.166-1.026-0.282-1.485-0.348
                C59.547,19.57,59.099,19.536,58.661,19.536z" />
            <path d="M73.767,27.653h-5.019l-1.305,3.396h-2.599l5.289-13.326h2.23l5.289,13.326h-2.58L73.767,27.653z
                 M71.238,20.931c-0.467,1.394-0.882,2.557-1.247,3.494l-0.456,1.186h3.445l-0.456-1.186c-0.36-0.945-0.776-2.108-1.247-3.494
                H71.238z" />
            <path d="M88.525,23.918c0.957,1.361,1.733,2.57,2.331,3.626h0.06c-0.079-1.733-0.12-2.994-0.12-3.785v-6.035h2.439
                v13.326h-2.559l-4.343-6.135c-0.763-1.062-1.554-2.294-2.37-3.694h-0.06c0.079,1.633,0.12,2.898,0.12,3.795v6.035h-2.44V17.723
                h2.56L88.525,23.918z" />
            <path d="M103.909,31.049h-2.439V19.765h-4.302v-2.041h11.035v2.041h-4.293V31.049z" />
            <path d="M112.134,31.049V17.723h2.44v13.326H112.134z" />
            <path d="M126.744,23.918c0.956,1.361,1.732,2.57,2.33,3.626h0.06c-0.081-1.733-0.12-2.994-0.12-3.785v-6.035h2.439
                v13.326h-2.559l-4.343-6.135c-0.763-1.062-1.554-2.294-2.37-3.694h-0.06c0.079,1.633,0.12,2.898,0.12,3.795v6.035h-2.44V17.723
                h2.56L126.744,23.918z" />
            <path d="M144.309,27.653h-5.019l-1.305,3.396h-2.599l5.288-13.326h2.231l5.289,13.326h-2.58L144.309,27.653z
                 M141.78,20.931c-0.467,1.394-0.882,2.557-1.247,3.494l-0.456,1.186h3.445l-0.456-1.186c-0.36-0.945-0.776-2.108-1.247-3.494
                H141.78z" />
        </g>

    </defs>

    <g>

        <g id="light" fill="#fff">
             <use xlink:href="#symbol" />
             <use xlink:href="#text" />
        </g>

        <g id="dark" fill="#000">
             <use xlink:href="#symbol" />
             <use xlink:href="#text" />
        </g>

        <g id="color-light">
             <use xlink:href="#symbol-color" />
             <use xlink:href="#text" fill="#58595B" />
        </g>

        <g id="color-dark">
             <use xlink:href="#symbol-color" />
             <use xlink:href="#text" fill="#fff" />
        </g>

    </g>
</svg>

